<svg xmlns="http://www.w3.org/2000/svg" width="75.129" height="75.129" viewBox="0 0 75.129 75.129">
  <path id="face-grin-beam-solid" d="M0,37.564A37.564,37.564,0,1,1,37.564,75.129,37.562,37.562,0,0,1,0,37.564ZM37.608,48.687A66.548,66.548,0,0,1,18.269,45.9a2.158,2.158,0,0,0-2.832,2.744,24.041,24.041,0,0,0,44.344,0A2.158,2.158,0,0,0,56.948,45.9a66.622,66.622,0,0,1-19.34,2.788Zm-4.373-14.7a1.181,1.181,0,0,0,.807-1.115,12.234,12.234,0,0,0-2.436-7.161c-1.438-1.908-3.507-3.4-5.781-3.4s-4.343,1.5-5.781,3.4a12.234,12.234,0,0,0-2.436,7.161,1.181,1.181,0,0,0,.807,1.115,1.163,1.163,0,0,0,1.306-.411h0l.029-.044c.029-.029-.073-.073.1-.132-.029-.117.235-.279.411-.484.367-.426.88-.968,1.5-1.643a7.5,7.5,0,0,1,4.065-1.922,7.5,7.5,0,0,1,4.065,1.922c.616.675,1.13,1.218,1.5,1.643.176.205.308.367.411.484a1.421,1.421,0,0,0,.1.132l.029.044h0a1.163,1.163,0,0,0,1.306.411Zm22.172-.411a1.163,1.163,0,0,0,1.306.411,1.181,1.181,0,0,0,.807-1.115,12.234,12.234,0,0,0-2.436-7.161c-1.438-1.908-3.507-3.4-5.781-3.4s-4.343,1.5-5.781,3.4a12.234,12.234,0,0,0-2.436,7.161,1.181,1.181,0,0,0,.807,1.115,1.163,1.163,0,0,0,1.306-.411h0l.029-.044c.029-.029-.073-.073.1-.132-.029-.117.235-.279.411-.484.367-.426.88-.968,1.5-1.643A7.5,7.5,0,0,1,49.3,29.347a7.5,7.5,0,0,1,4.065,1.922c.616.675,1.13,1.218,1.5,1.643.176.205.308.367.411.484a1.421,1.421,0,0,0,.1.132l.029.044Z" fill="#90cbf1"/>
</svg>
