<svg xmlns="http://www.w3.org/2000/svg" width="75.257" height="65.858" viewBox="0 0 75.257 65.858">
  <path id="leaf-solid" d="M75.258,51.564c0,18.8-10.3,34.586-25.767,39.7A25.753,25.753,0,0,1,17.1,79.21,35.7,35.7,0,0,0,6.961,95.1a3.529,3.529,0,0,1-3.429,2.706,3.628,3.628,0,0,1-.823-.1A3.533,3.533,0,0,1,.1,93.452C1.51,87.647,13.4,60.175,49.384,60.175a2.351,2.351,0,1,0,0-4.7c-15.786,0-27.193,5.086-35.234,11.112a26.505,26.505,0,0,1,.52-4.858A25.838,25.838,0,0,1,45.884,42c8.231,1.958,17.374-1.089,21.945-9a2.034,2.034,0,0,1,3.625.122A46.181,46.181,0,0,1,75.258,51.564Z" transform="translate(-0.002 -31.948)" fill="#90cbf1"/>
</svg>
