<svg xmlns="http://www.w3.org/2000/svg" width="84.686" height="56.458" viewBox="0 0 84.686 56.458">
  <path id="money-check-solid" d="M75.277,64a9.414,9.414,0,0,1,9.41,9.41v37.638a9.418,9.418,0,0,1-9.41,9.41H9.41A9.414,9.414,0,0,1,0,111.048V73.41A9.409,9.409,0,0,1,9.41,64ZM16.467,87.524a2.352,2.352,0,1,0,0,4.7H39.991a2.352,2.352,0,1,0,0-4.7Zm0,18.819H68.219a2.352,2.352,0,1,0,0-4.7H16.467a2.352,2.352,0,1,0,0,4.7ZM55.281,78.114a3.52,3.52,0,0,0-3.529,3.529V88.7a3.52,3.52,0,0,0,3.529,3.529H67.043A3.52,3.52,0,0,0,70.572,88.7V81.643a3.52,3.52,0,0,0-3.529-3.529Z" transform="translate(0 -64)" fill="#f0b2c8"/>
</svg>
