<svg xmlns="http://www.w3.org/2000/svg" width="96.008" height="76.806" viewBox="0 0 96.008 76.806">
  <path id="ranking-star-solid" d="M60.92,9.248a1.752,1.752,0,0,1,.975,2.964l-5.7,5.5,1.35,7.8a1.791,1.791,0,0,1-2.535,1.845l-6.976-3.675L41,27.407a1.762,1.762,0,0,1-2.535-1.83l1.35-7.816-5.7-5.549a1.752,1.752,0,0,1,.975-2.964l7.846-1.131L46.474.95a1.707,1.707,0,0,1,3.06,0l3.54,7.167ZM57.6,38.4a4.8,4.8,0,0,1,4.8,4.8v28.8a4.8,4.8,0,0,1-4.8,4.8H38.4a4.8,4.8,0,0,1-4.8-4.8V43.2a4.8,4.8,0,0,1,4.8-4.8ZM24,48a4.8,4.8,0,0,1,4.8,4.8v19.2a4.8,4.8,0,0,1-4.8,4.8H4.8a4.8,4.8,0,0,1-4.8-4.8V52.8A4.8,4.8,0,0,1,4.8,48Zm43.2,14.4a4.8,4.8,0,0,1,4.8-4.8h19.2a4.8,4.8,0,0,1,4.8,4.8v9.6a4.8,4.8,0,0,1-4.8,4.8h-19.2a4.8,4.8,0,0,1-4.8-4.8Z" transform="translate(0 0)" fill="#f0b2c8"/>
</svg>
