<svg xmlns="http://www.w3.org/2000/svg" width="78.319" height="68.529" viewBox="0 0 78.319 68.529">
  <path id="thumbs-up-solid" d="M19.58,95.5V61.232a4.78,4.78,0,0,0-4.895-4.757H4.895A4.868,4.868,0,0,0,0,61.232V95.359a4.78,4.78,0,0,0,4.895,4.757h9.79A4.439,4.439,0,0,0,19.58,95.5Zm58.74-34.112a7.34,7.34,0,0,0-7.342-7.339H48.567c3.483-5.8,5.28-12.372,5.28-14.688A7.4,7.4,0,0,0,46.273,32c-9.657,0-4.032,11.648-16.551,21.66l-2.493,1.989A7.371,7.371,0,0,0,24.49,61.37h0l-.015,24.475a7.34,7.34,0,0,0,2.937,5.872l5.222,3.914a24.406,24.406,0,0,0,14.679,4.9h8.979a7.3,7.3,0,0,0,7.152-8.953,7.265,7.265,0,0,0,3.994-10.761,7.295,7.295,0,0,0,4.041-12.136A7.32,7.32,0,0,0,78.319,61.385Z" transform="translate(0 -32)" fill="#90cbf1"/>
</svg>
